<svg width="40" height="40" viewBox="0 0 40 40" fill="none" xmlns="http://www.w3.org/2000/svg">
<path d="M11.9487 0.833496H28.0487C34.182 0.833496 39.1654 5.81683 39.1654 11.9502V28.0502C39.1654 30.9985 37.9942 33.8261 35.9094 35.9108C33.8246 37.9956 30.997 39.1668 28.0487 39.1668H11.9487C5.81536 39.1668 0.832031 34.1835 0.832031 28.0502V11.9502C0.832031 9.00184 2.00325 6.17427 4.08803 4.08949C6.17281 2.00471 9.00037 0.833496 11.9487 0.833496ZM11.5654 4.66683C9.73537 4.66683 7.98033 5.39379 6.68633 6.68779C5.39233 7.98179 4.66536 9.73684 4.66536 11.5668V28.4335C4.66536 32.2477 7.7512 35.3335 11.5654 35.3335H28.432C30.262 35.3335 32.0171 34.6065 33.3111 33.3125C34.6051 32.0185 35.332 30.2635 35.332 28.4335V11.5668C35.332 7.75266 32.2462 4.66683 28.432 4.66683H11.5654ZM30.0612 7.54183C30.6966 7.54183 31.306 7.79425 31.7553 8.24355C32.2046 8.69286 32.457 9.30225 32.457 9.93766C32.457 10.5731 32.2046 11.1825 31.7553 11.6318C31.306 12.0811 30.6966 12.3335 30.0612 12.3335C29.4258 12.3335 28.8164 12.0811 28.3671 11.6318C27.9178 11.1825 27.6654 10.5731 27.6654 9.93766C27.6654 9.30225 27.9178 8.69286 28.3671 8.24355C28.8164 7.79425 29.4258 7.54183 30.0612 7.54183ZM19.9987 10.4168C22.5404 10.4168 24.9779 11.4265 26.7751 13.2237C28.5724 15.0209 29.582 17.4585 29.582 20.0002C29.582 22.5418 28.5724 24.9794 26.7751 26.7766C24.9779 28.5738 22.5404 29.5835 19.9987 29.5835C17.457 29.5835 15.0195 28.5738 13.2223 26.7766C11.425 24.9794 10.4154 22.5418 10.4154 20.0002C10.4154 17.4585 11.425 15.0209 13.2223 13.2237C15.0195 11.4265 17.457 10.4168 19.9987 10.4168ZM19.9987 14.2502C18.4737 14.2502 17.0112 14.856 15.9328 15.9343C14.8545 17.0126 14.2487 18.4752 14.2487 20.0002C14.2487 21.5252 14.8545 22.9877 15.9328 24.066C17.0112 25.1444 18.4737 25.7502 19.9987 25.7502C21.5237 25.7502 22.9862 25.1444 24.0646 24.066C25.1429 22.9877 25.7487 21.5252 25.7487 20.0002C25.7487 18.4752 25.1429 17.0126 24.0646 15.9343C22.9862 14.856 21.5237 14.2502 19.9987 14.2502Z" fill="#018A87"/>
</svg>
