<svg width="41" height="42" viewBox="0 0 41 42" fill="none" xmlns="http://www.w3.org/2000/svg">
<path d="M3.01074 1.5H37.9893C39.1236 1.5001 39.9999 2.39027 40 3.43652V38.5635C39.9999 39.6097 39.1236 40.4999 37.9893 40.5H3.01074C1.87638 40.4999 1.00006 39.6097 1 38.5635V3.43652C1.00006 2.39027 1.87638 1.5001 3.01074 1.5ZM5.51367 35.8223H13.666V15.3076H5.51367V35.8223ZM27.7158 14.8701C25.885 14.8702 24.5035 15.3779 23.4561 16.1025C23.3564 16.1715 23.2607 16.2426 23.168 16.3145V15.3076H14.9727L15.0195 16.3525C15.0566 17.1916 15.0565 21.7837 15.0469 26.2148C15.0421 28.4197 15.0353 30.5704 15.0293 32.1699C15.0263 32.9697 15.0234 33.6318 15.0215 34.0938C15.0205 34.3247 15.0191 34.5057 15.0186 34.6289V34.8174L15.0137 35.8223H23.168V24.4824C23.168 23.9344 23.2161 23.5587 23.2969 23.3643L23.3008 23.3535C23.6487 22.4868 24.3707 21.7305 25.5303 21.7305C26.3489 21.7305 26.8018 22.0199 27.0967 22.4531C27.4352 22.9503 27.6465 23.7632 27.6465 24.918V35.8223H35.7988V24.2031C35.7988 21.1869 34.9925 18.8335 33.5107 17.2256C32.0216 15.6097 29.9628 14.8701 27.7158 14.8701ZM14.0713 10.5596C14.047 9.41486 13.622 8.35577 12.8223 7.58203C12.0207 6.80662 10.9106 6.3829 9.63281 6.38281C8.35717 6.38281 7.23037 6.80533 6.41504 7.57422C5.59799 8.34484 5.15039 9.41201 5.15039 10.5811C5.15048 12.9352 6.9571 14.7793 9.55078 14.7793H9.5918C10.8899 14.7792 12.0182 14.3451 12.8281 13.5684C13.6374 12.7922 14.0712 11.7271 14.0713 10.5811V10.5596Z" fill="#018A87" stroke="#018A87" stroke-width="2"/>
</svg>
