<svg width="55" height="55" viewBox="0 0 55 55" fill="none" xmlns="http://www.w3.org/2000/svg">
<rect x="1" y="1" width="53" height="53" rx="26.5" fill="#018A87"/>
<rect x="1" y="1" width="53" height="53" rx="26.5" stroke="white" stroke-width="2"/>
<path d="M25.3906 32.5312V31.9531C25.3906 31.3594 25.4271 30.8229 25.5 30.3438C25.5833 29.8646 25.724 29.4167 25.9219 29C26.1302 28.5833 26.4062 28.1771 26.75 27.7812C27.0938 27.375 27.526 26.9531 28.0469 26.5156C28.5469 26.0885 28.974 25.7031 29.3281 25.3594C29.6823 25.0052 29.9688 24.651 30.1875 24.2969C30.4167 23.9323 30.5833 23.5469 30.6875 23.1406C30.8021 22.724 30.8594 22.2396 30.8594 21.6875C30.8594 21.1875 30.7812 20.7344 30.625 20.3281C30.4688 19.9115 30.2396 19.5573 29.9375 19.2656C29.6458 18.9635 29.276 18.7344 28.8281 18.5781C28.3906 18.4115 27.8802 18.3281 27.2969 18.3281C26.4323 18.3281 25.6094 18.4635 24.8281 18.7344C24.0469 19.0052 23.2917 19.3177 22.5625 19.6719L21.5781 17.4062C22.4219 16.9688 23.3333 16.599 24.3125 16.2969C25.2917 15.9844 26.2865 15.8281 27.2969 15.8281C28.2656 15.8281 29.1354 15.9635 29.9062 16.2344C30.6875 16.4948 31.349 16.875 31.8906 17.375C32.4323 17.875 32.849 18.4896 33.1406 19.2188C33.4323 19.9375 33.5781 20.75 33.5781 21.6562C33.5781 22.3542 33.5052 22.9792 33.3594 23.5312C33.224 24.0729 33.0156 24.5781 32.7344 25.0469C32.4531 25.5156 32.1042 25.9688 31.6875 26.4062C31.2708 26.8438 30.7812 27.3073 30.2188 27.7969C29.6771 28.2656 29.2344 28.6771 28.8906 29.0312C28.5469 29.375 28.276 29.7135 28.0781 30.0469C27.8802 30.3698 27.7448 30.7031 27.6719 31.0469C27.599 31.3906 27.5625 31.7917 27.5625 32.25V32.5312H25.3906ZM24.6406 37.2656C24.6406 36.8698 24.6927 36.5365 24.7969 36.2656C24.901 35.9844 25.0417 35.7604 25.2188 35.5938C25.3958 35.4167 25.6042 35.2917 25.8438 35.2188C26.0833 35.1354 26.3438 35.0938 26.625 35.0938C26.8958 35.0938 27.151 35.1354 27.3906 35.2188C27.6406 35.2917 27.8542 35.4167 28.0312 35.5938C28.2083 35.7604 28.349 35.9844 28.4531 36.2656C28.5573 36.5365 28.6094 36.8698 28.6094 37.2656C28.6094 37.651 28.5573 37.9844 28.4531 38.2656C28.349 38.5365 28.2083 38.7604 28.0312 38.9375C27.8542 39.1146 27.6406 39.2448 27.3906 39.3281C27.151 39.4115 26.8958 39.4531 26.625 39.4531C26.3438 39.4531 26.0833 39.4115 25.8438 39.3281C25.6042 39.2448 25.3958 39.1146 25.2188 38.9375C25.0417 38.7604 24.901 38.5365 24.7969 38.2656C24.6927 37.9844 24.6406 37.651 24.6406 37.2656Z" fill="white"/>
</svg>
