<svg width="62" height="62" viewBox="0 0 62 62" fill="none" xmlns="http://www.w3.org/2000/svg">
<path d="M12.3984 61.9902H4C1.79086 61.9902 0 60.1994 0 57.9902V49.5918H12.3984V61.9902ZM37.1934 61.9902H24.7949V49.5918H37.1934V61.9902ZM62.001 57.9902C62.001 60.1993 60.21 61.9901 58.001 61.9902H49.6016V49.5918H62.001V57.9902ZM12.3984 26.5693H12.4043V31.8828C12.4041 34.8172 10.0254 37.1963 7.09082 37.1963V33.6543C8.06894 33.6543 8.86212 32.8608 8.8623 31.8828V28.3398H0V24.7979H12.3984V26.5693ZM37.1992 28.3398H30.1143C29.3408 28.3398 28.3447 28.3593 28.3447 28.7832C28.3457 29.2496 30.1369 29.2256 30.999 29.2256C32.0932 29.2256 33.4766 29.3699 34.6396 29.8252C35.729 30.2518 37.3472 31.293 37.1943 33.3428C37.0907 34.7307 36.2937 35.761 35.2559 36.3789C34.2702 36.9657 33.0677 37.1963 31.8848 37.1963H24.7998V33.6533H31.8848C32.6582 33.6533 33.658 33.6347 33.6582 33.2109C33.6582 32.787 31.8613 32.7676 30.999 32.7676C29.9049 32.7675 28.5223 32.6232 27.3594 32.168C26.27 31.7414 24.652 30.701 24.8047 28.6514C24.9082 27.2633 25.7053 26.2322 26.7432 25.6143C27.7287 25.0276 28.9314 24.7979 30.1143 24.7979H37.1992V28.3398ZM53.1045 33.6523H61.9658V37.1943H53.1045V37.1963H49.5625V24.7979H53.1045V33.6523ZM7.08496 37.1943H0V33.6523H7.08496V37.1943ZM12.3984 12.3984H0V4C0.000198104 1.79103 1.79098 0 4 0H12.3984V12.3984ZM37.1934 12.3984H24.7949V0H37.1934V12.3984ZM58.001 0C60.2099 0.000116491 62.0008 1.7911 62.001 4V12.3984H49.6016V0H58.001Z" fill="#018A87"/>
</svg>
