<svg width="41" height="42" viewBox="0 0 41 42" fill="none" xmlns="http://www.w3.org/2000/svg">
<path d="M20.582 1.16699H20.585C23.1817 1.15802 25.7542 1.66378 28.1523 2.6543C30.5504 3.64484 32.7263 5.09993 34.5527 6.93555L34.5547 6.93848C38.2817 10.6469 40.333 15.581 40.333 20.8359C40.333 31.6576 31.4662 40.4844 20.582 40.4844C17.274 40.4843 14.0252 39.6518 11.1348 38.085L10.9023 37.959L10.6475 38.0264L0.946289 40.5635L3.52734 31.1387L3.60059 30.8711L3.46191 30.6299C1.74784 27.6551 0.831055 24.2847 0.831055 20.8154C0.831127 9.99399 9.69804 1.1672 20.582 1.16699ZM20.5615 3.25684C10.8429 3.25699 2.91804 11.1373 2.91797 20.8154V20.8164C2.92048 24.1178 3.85559 27.3518 5.61621 30.1494L5.62109 30.1572L5.87012 30.542L4.24023 36.4854L3.93457 37.5996L5.05176 37.3066L11.209 35.6963L11.5879 35.9229L11.5918 35.9248C14.3099 37.5219 17.4135 38.374 20.582 38.374C30.2992 38.374 38.2274 30.5153 38.1846 20.833C38.1925 18.5263 37.741 16.241 36.8555 14.1094C35.9695 11.9768 34.6665 10.0409 33.0234 8.41309H33.0244C29.7054 5.08946 25.2702 3.25684 20.5615 3.25684ZM13.3506 12.0928H14.3271C14.3768 12.0951 14.4239 12.0963 14.4531 12.0967C14.4953 12.0972 14.5205 12.0979 14.543 12.0996C14.5817 12.1025 14.59 12.107 14.5908 12.1074C14.5929 12.1084 14.599 12.1117 14.6094 12.1201C14.6209 12.1294 14.6396 12.1475 14.665 12.1787C14.7043 12.2271 14.7566 12.3049 14.8164 12.4277L14.8789 12.5654C15.286 13.5777 16.3245 16.1025 16.4639 16.3799C16.507 16.4659 16.5217 16.518 16.5254 16.5527C16.5279 16.5768 16.5269 16.6113 16.499 16.6719C16.3307 17.0071 16.2625 17.1554 16.0801 17.3672C15.7953 17.6978 15.5561 18.0083 15.3525 18.2109C15.2343 18.3285 14.9918 18.5615 14.874 18.8877C14.7343 19.2747 14.7999 19.6723 15.0156 20.0557L15.0254 20.0732C15.3391 20.5935 16.3921 22.3285 17.9971 23.7529C20.0222 25.5535 21.7824 26.1538 22.252 26.3779V26.377C22.5497 26.5288 22.8925 26.6505 23.2578 26.6084C23.6616 26.5617 23.9529 26.3344 24.165 26.0781C24.466 25.7346 25.4261 24.5971 25.8018 24.0508L25.8027 24.0518C25.8383 24.0018 25.8641 23.9746 25.8789 23.9609C25.8907 23.9621 25.9095 23.9637 25.9365 23.9697C25.9964 23.9831 26.0704 24.0057 26.1787 24.043C26.6516 24.2404 29.0686 25.4233 29.6074 25.6807C29.7418 25.7448 29.8653 25.8009 29.9648 25.8467C30.0686 25.8945 30.1444 25.9312 30.2061 25.9639C30.2359 25.9797 30.257 25.9947 30.2734 26.0049C30.274 26.0101 30.2758 26.0156 30.2764 26.0215C30.2854 26.1175 30.287 26.2607 30.2715 26.4453C30.2405 26.8135 30.1448 27.3047 29.9482 27.8447L29.9453 27.8545C29.8158 28.2281 29.3664 28.6936 28.7119 29.1123C28.0768 29.5186 27.4126 29.7761 27.043 29.8311C26.2028 29.9477 25.2028 29.9974 24.123 29.6514H24.124L24.1143 29.6484L23.5312 29.4658C22.91 29.2642 22.1702 28.9993 21.2832 28.6104L21.2783 28.6084L20.8223 28.4023C16.1673 26.1949 13.1012 21.5309 12.8438 21.168L12.832 21.1523L12.6807 20.9473C12.4713 20.6568 12.1078 20.121 11.7607 19.4414C11.2931 18.5255 10.8858 17.4052 10.8857 16.3057C10.8857 14.0979 12.0143 13.0386 12.4805 12.5146C12.808 12.1605 13.1544 12.0928 13.3506 12.0928Z" fill="#018A87" stroke="#018A87" stroke-width="1.33333"/>
</svg>
